<?xml version="1.0" encoding="iso-8859-1"?>
<!-- Generator: Adobe Illustrator 19.0.0, SVG Export Plug-In . SVG Version: 6.00 Build 0)  -->
<svg version="1.1" id="Capa_1" xmlns="http://www.w3.org/2000/svg" xmlns:xlink="http://www.w3.org/1999/xlink" x="0px" y="0px"
	 viewBox="0 0 512 512" style="enable-background:new 0 0 512 512;" xml:space="preserve">
<path style="fill:#FFC66C;" d="M442,37H70c-33.137,0-60,26.863-60,60v240c0,33.137,26.863,60,60,60h220.866l78,78v-78H442
	c33.137,0,60-26.863,60-60V97C502,63.863,475.137,37,442,37z"/>
<polygon style="fill:#4DBAF6;" points="447.412,117 335.412,178.358 335.412,255.642 447.412,317 "/>
<path style="fill:#72D8FF;" d="M299.113,313H99.711c-20.047,0-36.299-16.252-36.299-36.299V157.299
	c0-20.047,16.252-36.299,36.299-36.299h199.402c20.047,0,36.299,16.252,36.299,36.299v119.402
	C335.412,296.748,319.161,313,299.113,313z"/>
<path d="M368.868,485c-2.603,0.001-5.16-1.016-7.073-2.929L286.724,407H267c-5.522,0-10-4.478-10-10s4.478-10,10-10h23.866
	c2.652,0,5.195,1.054,7.071,2.929l60.929,60.929V397c0-5.522,4.478-10,10-10H442c27.57,0,50-22.43,50-50V97c0-27.57-22.43-50-50-50
	H70c-27.57,0-50,22.43-50,50v240c0,27.57,22.43,50,50,50h101.5c5.522,0,10,4.478,10,10s-4.478,10-10,10H70
	c-38.598,0-70-31.402-70-70V97c0-38.598,31.402-70,70-70h372c38.598,0,70,31.402,70,70v240c0,38.598-31.402,70-70,70h-63.134v68
	c0,4.045-2.437,7.691-6.173,9.239C371.456,484.751,370.156,485,368.868,485z"/>
<path d="M215.2,407c-2.631,0-5.21-1.07-7.07-2.931c-1.86-1.859-2.93-4.439-2.93-7.069s1.069-5.21,2.93-7.07s4.439-2.93,7.07-2.93
	c2.63,0,5.21,1.069,7.069,2.93c1.86,1.86,2.931,4.44,2.931,7.07s-1.07,5.21-2.931,7.069C220.41,405.93,217.83,407,215.2,407z"/>
<path d="M452.509,108.396c-3.038-1.8-6.803-1.863-9.901-0.167l-97.195,53.248v-4.178c0-25.529-20.77-46.299-46.299-46.299H99.711
	c-25.529,0-46.299,20.77-46.299,46.299v119.402c0,25.529,20.77,46.299,46.299,46.299h199.402c25.529,0,46.299-20.77,46.299-46.299
	v-4.178l97.195,53.248c1.498,0.82,3.152,1.229,4.805,1.229c1.765,0,3.527-0.467,5.097-1.396c3.039-1.801,4.903-5.071,4.903-8.604
	V117C457.412,113.468,455.548,110.197,452.509,108.396z M325.412,276.701c0,14.501-11.798,26.299-26.299,26.299H99.711
	c-14.501,0-26.299-11.798-26.299-26.299V275h75.446c5.522,0,10-4.478,10-10s-4.478-10-10-10H73.412v-97.701
	C73.412,142.798,85.21,131,99.711,131h199.402c14.501,0,26.299,11.798,26.299,26.299v21.06v77.283V276.701z M437.412,300.119
	l-92-50.401v-65.436l92-50.401V300.119z"/>
<path d="M183.624,275c-5.522,0-10.049-4.478-10.049-10s4.428-10,9.95-10h0.099c5.522,0,10,4.478,10,10S189.146,275,183.624,275z"/>
<g>
</g>
<g>
</g>
<g>
</g>
<g>
</g>
<g>
</g>
<g>
</g>
<g>
</g>
<g>
</g>
<g>
</g>
<g>
</g>
<g>
</g>
<g>
</g>
<g>
</g>
<g>
</g>
<g>
</g>
</svg>
