<?xml version="1.0" encoding="UTF-8"?>
<svg width="24px" height="16px" viewBox="0 0 24 16" version="1.1" xmlns="http://www.w3.org/2000/svg" xmlns:xlink="http://www.w3.org/1999/xlink">
    <!-- Generator: Sketch 52.5 (67469) - http://www.bohemiancoding.com/sketch -->
    <title>screen_share</title>
    <desc>Created with Sketch.</desc>
    <g id="Icons" stroke="none" stroke-width="1" fill="none" fill-rule="evenodd">
        <g id="Outlined" transform="translate(-916.000000, -1264.000000)">
            <g id="Communication" transform="translate(100.000000, 1162.000000)">
                <g id="Outlined-/-Communication-/-screen_share" transform="translate(816.000000, 98.000000)">
                    <g>
                        <polygon id="Path" points="0 0 24 0 24 24 0 24"></polygon>
                        <path d="M20,18 C21.1,18 21.99,17.1 21.99,16 L22,6 C22,4.89 21.1,4 20,4 L4,4 C2.89,4 2,4.89 2,6 L2,16 C2,17.1 2.89,18 4,18 L0,18 L0,20 L24,20 L24,18 L20,18 Z M4,16 L4,6 L20,6 L20,16.01 L4,16 Z M13,9.13 C9.11,9.67 7.56,12.33 7,15 C8.39,13.13 10.22,12.28 13,12.28 L13,14.47 L17,10.73 L13,7 L13,9.13 Z" id="🔹-Icon-Color" fill="#1D1D1D"></path>
                    </g>
                </g>
            </g>
        </g>
    </g>
</svg>