<svg xmlns="http://www.w3.org/2000/svg" viewBox="0 0 400 300" width="406" height="306" class="illustration styles_illustrationTablet__1DWOa"><g id="_299_sent_messages_flatline" data-name="#299_sent_messages_flatline"><path d="M264.08,251.25l35.53-19.44c-8.17-12.47-8.78-19.62-10.17-29.49-4.48-31.69-35.91-51.93-60.35-68.6a70.61,70.61,0,0,0-6.39-4c-2.59-1.39-9.82-5.7-11.71-1.72-1.81,3.82,2.69,10.79,4.95,13.59a55.37,55.37,0,0,0-4.92-6.31,4.52,4.52,0,0,0-2.2-1.58c-1.64-.37-3.22,1.19-3.47,2.85a8.24,8.24,0,0,0,1.2,4.82,47.5,47.5,0,0,0,6.77,10c-1.79-2-8.43-9.65-8.29-1.94a18.49,18.49,0,0,0,5.64,12.86,33.52,33.52,0,0,0-4.93-3.61,2.26,2.26,0,0,0-1.76-.45,2.12,2.12,0,0,0-1.19,1.71c-1.1,4.94,1.64,8.47,3.53,12.7,1.46,3.27,2.32,6.39,4.18,9.56,6.76,11.48,13.78,19.44,21.51,30.29C234,215.2,264,251.3,264.08,251.25Z" fill="#fff"></path><path d="M264.13,251.75c-.33,0-1-.76-5.21-5.83-2.86-3.42-6.68-8-10.56-12.7-3.62-4.36-15.51-18.73-16.76-20.49-2.6-3.65-5.12-7-7.57-10.21a198.94,198.94,0,0,1-14-20.12,41.94,41.94,0,0,1-2.83-6.21c-.42-1.11-.87-2.25-1.38-3.4-.39-.87-.82-1.73-1.24-2.56-1.66-3.27-3.23-6.37-2.31-10.45a2.48,2.48,0,0,1,1.52-2.08,2.73,2.73,0,0,1,2.17.5c.5.31,1,.63,1.5,1a18.86,18.86,0,0,1-3-9.77c0-2.14.43-3.38,1.43-3.77.83-.32,1.86,0,3,.81a46.91,46.91,0,0,1-2.82-4.86,8.56,8.56,0,0,1-1.25-5.11,4.2,4.2,0,0,1,1.74-2.77,2.92,2.92,0,0,1,2.33-.5,4.58,4.58,0,0,1,2.26,1.52c-1-2.41-1.58-5-.65-7a3.16,3.16,0,0,1,2-1.72c2.85-.93,7.42,1.57,9.88,2.91l.57.31a71.56,71.56,0,0,1,6.44,4.05l2.85,1.94c23.78,16.18,53.36,36.31,57.7,67l.24,1.67c1.24,8.91,2.21,16,9.86,27.61a.49.49,0,0,1-.18.71l-35.53,19.45h0A.37.37,0,0,1,264.13,251.75Zm-.05-.5h0Zm-59.73-92.63a.85.85,0,0,0-.23,0c-.48.15-.72.81-.84,1.35-.83,3.73.65,6.67,2.23,9.78.42.84.87,1.71,1.27,2.61.51,1.16,1,2.32,1.4,3.44a40,40,0,0,0,2.76,6.07,197.11,197.11,0,0,0,13.89,20c2.45,3.23,5,6.57,7.59,10.23,2.14,3,29,35.22,31.77,38.47l34.71-19c-7.5-11.58-8.48-18.65-9.72-27.57l-.24-1.67c-4.27-30.25-33.66-50.25-57.27-66.31l-2.86-2a70.79,70.79,0,0,0-6.34-4l-.58-.32c-2.16-1.17-6.65-3.63-9.1-2.83a2.18,2.18,0,0,0-1.34,1.2c-1.19,2.5.69,6.85,2.9,10.3.7.92,1.37,1.85,2,2.81a.49.49,0,0,1-.12.68.5.5,0,0,1-.69-.09c-.09-.12-.93-1.17-1.92-2.7q-1.42-1.86-3-3.59a4.14,4.14,0,0,0-1.94-1.43,2,2,0,0,0-1.55.34,3.21,3.21,0,0,0-1.32,2.1,7.82,7.82,0,0,0,1.16,4.51,47.08,47.08,0,0,0,6.68,9.85l0,0a.5.5,0,0,1-.75.66h0l0,0,0-.06c-4.11-4.64-5.83-5.28-6.55-5-.54.21-.82,1.21-.79,2.82A17.86,17.86,0,0,0,211,161.87a.5.5,0,0,1-.67.74,33.79,33.79,0,0,0-4.86-3.55A2.52,2.52,0,0,0,204.35,158.62Z" fill="#231f20"></path><rect x="195.13" y="70.7" width="80.98" height="161.42" rx="5.16" transform="translate(428.24 354.74) rotate(-166.17)" fill="#fff"></rect><path d="M251.89,238.88a5.78,5.78,0,0,1-1.37-.17l-68.61-16.88h0a5.67,5.67,0,0,1-4.14-6.85l36.1-146.72a5.68,5.68,0,0,1,6.85-4.15L289.33,81a5.64,5.64,0,0,1,4.15,6.85L257.37,234.57a5.66,5.66,0,0,1-5.48,4.31Zm-69.74-18,68.61,16.88a4.66,4.66,0,0,0,5.64-3.41L292.51,87.61A4.66,4.66,0,0,0,289.1,82L220.49,65.08a4.67,4.67,0,0,0-5.65,3.42l-36.1,146.71a4.67,4.67,0,0,0,3.41,5.65Z" fill="#231f20"></path><rect x="200.34" y="85.42" width="72.48" height="124.23" transform="translate(431.05 347.33) rotate(-166.17)" fill="#e6e7e8"></rect><rect x="208.84" y="213.55" width="20.13" height="11.62" rx="3.17" transform="translate(379.05 484.67) rotate(-166.17)" fill="#fff"></rect><path d="M225,227.24a3.7,3.7,0,0,1-.87-.11l-13.39-3.29h0a3.69,3.69,0,0,1-2.69-4.45l1.26-5.12a3.69,3.69,0,0,1,4.45-2.69l13.38,3.3a3.66,3.66,0,0,1,2.69,4.44l-1.26,5.12A3.67,3.67,0,0,1,225,227.24Zm-14-4.37,13.39,3.29a2.66,2.66,0,0,0,3.23-2l1.26-5.12a2.67,2.67,0,0,0-2-3.23l-13.38-3.3a2.69,2.69,0,0,0-3.24,2L209,219.63a2.69,2.69,0,0,0,2,3.24Z" fill="#e6e7e8"></path><path d="M266.17,83.51l-.12,0-20-4.93a.49.49,0,0,1-.36-.6.5.5,0,0,1,.6-.37l20,4.93a.51.51,0,0,1,.37.61A.5.5,0,0,1,266.17,83.51Z" fill="#e6e7e8"></path><path d="M243.32,77.89l-.12,0-2.68-.66a.5.5,0,0,1-.37-.6.49.49,0,0,1,.6-.37l2.69.66a.5.5,0,0,1-.12,1Z" fill="#e6e7e8"></path><rect x="202.79" y="164.46" width="56.71" height="16.84" rx="6.88" transform="translate(417.04 393.69) rotate(-166.89)" fill="#231f20"></rect><path d="M251.7,186.64a7.4,7.4,0,0,1-1.67-.2L208.2,176.7a7.38,7.38,0,0,1-5.51-8.86l.7-3a7.38,7.38,0,0,1,8.86-5.52l41.83,9.74a7.39,7.39,0,0,1,5.51,8.86l-.7,3A7.4,7.4,0,0,1,251.7,186.64Zm-41.12-26.51a6.4,6.4,0,0,0-6.22,4.93l-.7,3a6.38,6.38,0,0,0,4.77,7.66h0l41.83,9.74a6.39,6.39,0,0,0,7.66-4.77l.7-3a6.39,6.39,0,0,0-4.77-7.66L212,160.3A6,6,0,0,0,210.58,160.13Z" fill="#231f20"></path><path d="M219.17,167.31a1.71,1.71,0,0,0-.63-.78,2.6,2.6,0,0,0-1-.42A2.56,2.56,0,0,0,217,166a1.86,1.86,0,0,0-.58.11,1.27,1.27,0,0,0-.47.32,1.22,1.22,0,0,0-.27.56,1,1,0,0,0,.17.87,4.11,4.11,0,0,0,.78.67c.32.21.67.43,1.07.65a4.62,4.62,0,0,1,1,.77,3.08,3.08,0,0,1,.69,1.07,2.75,2.75,0,0,1,0,1.52,3.32,3.32,0,0,1-.63,1.35,2.8,2.8,0,0,1-1,.82,3.56,3.56,0,0,1-1.31.33A4.56,4.56,0,0,1,215,175a5.34,5.34,0,0,1-1.74-.72,3.54,3.54,0,0,1-1.25-1.4l1.65-1a2.35,2.35,0,0,0,.68,1,2.53,2.53,0,0,0,1.07.54,3.49,3.49,0,0,0,.65.06,2.21,2.21,0,0,0,.63-.13,1.39,1.39,0,0,0,.51-.34,1.2,1.2,0,0,0,.3-.57,1.12,1.12,0,0,0-.16-.94,3.55,3.55,0,0,0-.77-.71c-.32-.21-.68-.43-1.07-.65a5.39,5.39,0,0,1-1-.77,3,3,0,0,1-.69-1.06,2.71,2.71,0,0,1,0-1.51,2.8,2.8,0,0,1,.63-1.28,3.18,3.18,0,0,1,1.06-.76,3.8,3.8,0,0,1,1.32-.29,5.31,5.31,0,0,1,2.9.72,3.86,3.86,0,0,1,1.17,1.11Z" fill="#fff"></path><path d="M222.9,165.88l6.68,1.53-.37,1.62-4.89-1.11-.56,2.48,4.63,1-.37,1.63L223.39,172l-.63,2.74,5.15,1.17-.37,1.63L220.6,176Z" fill="#fff"></path><path d="M231.61,167.87l2.38.54,3.18,8.61h0l1.71-7.5,1.8.41L238.4,180l-2.28-.52-3.23-8.87h0l-1.77,7.74-1.79-.41Z" fill="#fff"></path><path d="M243,170.46l4,.9a6.1,6.1,0,0,1,1.85.75,4.82,4.82,0,0,1,1.43,1.3,4.69,4.69,0,0,1,.78,1.84,5.63,5.63,0,0,1-.08,2.33,5,5,0,0,1-1,2.13,4.94,4.94,0,0,1-1.62,1.28,5.65,5.65,0,0,1-1.94.53,6.15,6.15,0,0,1-1.93-.12l-3.76-.85Zm1.2,9.18a7.26,7.26,0,0,0,1.64.17,3.89,3.89,0,0,0,1.44-.31,2.85,2.85,0,0,0,1.11-.85,3.6,3.6,0,0,0,.69-1.5,4.21,4.21,0,0,0,.07-1.64,2.92,2.92,0,0,0-.55-1.24,3.37,3.37,0,0,0-1.06-.87,6.14,6.14,0,0,0-1.48-.54l-1.64-.37-1.55,6.84Z" fill="#fff"></path><path d="M291.44,216.05S285,162.26,278.7,156.37c-7.49-7-14.32-11.74-15.56-7.74s-2.42,10.65,7.82,18.14l-1.5,13.32s-10.07,7-4.83,28.93" fill="#fff"></path><path d="M291.43,216.51a.47.47,0,0,1-.45-.41c-.06-.53-6.48-53.69-12.59-59.4-9.2-8.58-12.6-9.33-13.82-9a1.43,1.43,0,0,0-1,1.08c-1.42,4.56-1.84,10.68,7.66,17.64a.44.44,0,0,1,.18.42l-1.49,13.31a.5.5,0,0,1-.2.33c-.1.07-9.74,7.08-4.64,28.45a.47.47,0,0,1-.34.55.46.46,0,0,1-.55-.34c-4.94-20.71,3.46-28.22,4.84-29.29L270.48,167c-9.75-7.23-9.28-13.68-7.78-18.5a2.31,2.31,0,0,1,1.64-1.69c2.47-.65,7.41,2.46,14.67,9.24,6.36,5.93,12.62,57.75,12.88,60a.45.45,0,0,1-.4.51Z" fill="#231f20"></path><path d="M101.74,235.74s20.06-38.87,35.17-56.39c2.06-2.39,4.7-2.79,6.55-1.56,2.19,1.47,2.28,6.36,2.28,6.36s5.73-3.28,8.48-2.6,3.07,5,3.07,5,6.13-2,8.65.16,2.59,6,2.59,6,32.26-25.57,35.82-27.72,9.94,1.67,6.79,6.21c-2,2.83-18.26,18.82-23.53,23.9S170.06,214,168.69,218.06s-2.54,8.68,5.83,9.25,15.83,2,19.5,5.08,6.08,7.69,4.24,8.59-31.43-2.43-42.67,2.09-25.87,21-25.87,21Z" fill="#fff"></path><path d="M129.72,264.6a.48.48,0,0,1-.36-.15l-28-28.35a.53.53,0,0,1-.09-.59c.21-.38,20.26-39.13,35.24-56.49,2.12-2.45,5-3.11,7.21-1.64,1.83,1.22,2.32,4.44,2.45,6,1.66-.87,5.81-2.85,8.15-2.27s3.16,3.51,3.37,4.8c1.64-.45,6.3-1.49,8.55.43a8.75,8.75,0,0,1,2.68,5.46c4.92-3.89,31.86-25.19,35.15-27.18,2.36-1.42,5.56-.46,7.17,1.26a4.28,4.28,0,0,1,.29,5.67c-2,2.85-18,18.57-23.59,24s-17.48,18.84-18.8,22.74c-.78,2.32-1.46,4.73-.37,6.36.85,1.28,2.79,2,5.77,2.23,9.77.66,16.42,2.41,19.78,5.2,3,2.5,5.27,6.13,5,8.08a1.63,1.63,0,0,1-.9,1.34c-.64.32-3.06.24-8.46,0-9.93-.38-26.56-1-34.24,2.08-11,4.42-25.54,20.73-25.69,20.89a.46.46,0,0,1-.36.17Zm-27.37-29,27.35,27.72c2.36-2.6,15.32-16.59,25.7-20.76,7.89-3.17,24.65-2.53,34.66-2.15,3.84.15,7.47.29,8,.07a.61.61,0,0,0,.34-.56c.17-1.42-1.71-4.72-4.68-7.19-3.19-2.65-9.65-4.33-19.21-5-3.35-.23-5.49-1.1-6.53-2.67-1.35-2-.61-4.68.25-7.24,1.47-4.34,14.11-18.38,19-23.14,5.37-5.17,21.56-21.07,23.47-23.82a3.26,3.26,0,0,0-.2-4.42c-1.35-1.43-4.05-2.21-5.93-1.08-3.48,2.1-35.44,27.43-35.76,27.68a.51.51,0,0,1-.53.06.49.49,0,0,1-.28-.44s-.1-3.71-2.41-5.68-8.12-.09-8.18-.07a.47.47,0,0,1-.43-.06.47.47,0,0,1-.22-.38s-.32-3.93-2.68-4.51c-2.1-.52-6.58,1.66-8.12,2.54a.5.5,0,0,1-.5,0,.48.48,0,0,1-.25-.42c0-1.29-.44-4.87-2.06-5.95s-4.12-.58-5.89,1.46C123.11,196.11,104.32,231.88,102.35,235.65Z" fill="#231f20"></path><path d="M124.69,105.46,105.4,156.54l48.42,8.68h0c.8-2.14,2.49-3.64,3.73-3.36l5.62,1.24c.47.11,1.11-.34,1.52-1.13a3.16,3.16,0,0,0,.4-1.78.77.77,0,0,0-.5-.72L155.52,157a1,1,0,0,1-.64-.82,3,3,0,0,1,.19-1.53c.43-1.13,1.31-1.87,2-1.66l1.27.36,4.93,1.54c.7.22,1.69-.62,2.13-1.88a3.39,3.39,0,0,0,.2-1.55,1.05,1.05,0,0,0-.58-.94L155.33,147a1.14,1.14,0,0,1-.66-.94,3.3,3.3,0,0,1,.4-2.09c.5-.93,1.3-1.36,1.89-1.11l13,5.44c.59.24,1.42-.49,1.86-1.65h0c.44-1.15.33-2.31-.25-2.59l-9-4.32a1.19,1.19,0,0,1-.57-1,3.19,3.19,0,0,1,.21-1.6c.42-1.12,1.26-1.76,1.87-1.44l.8.4,5.27,2.8c.5.27,1.43.15,2.09-1.37,1.05-2.41,0-3.14-.3-3.31l-5.09-3.31Z" fill="#fff"></path><path d="M124.69,105.46l42.14,25.43,5.09,3.31c.28.17,1.35.9.3,3.31-.49,1.12-1.13,1.48-1.63,1.48a1,1,0,0,1-.46-.11l-5.27-2.8-.8-.4a.77.77,0,0,0-.34-.08c-.55,0-1.18.6-1.53,1.52a3.19,3.19,0,0,0-.21,1.6,1.19,1.19,0,0,0,.57,1l9,4.32c.58.28.69,1.44.25,2.59h0c-.38,1-1.06,1.69-1.62,1.69a.64.64,0,0,1-.24,0l-13-5.44a.81.81,0,0,0-.35-.07,2,2,0,0,0-1.54,1.18,3.3,3.3,0,0,0-.4,2.09,1.14,1.14,0,0,0,.66.94l9.66,3.56a1.05,1.05,0,0,1,.58.94,3.39,3.39,0,0,1-.2,1.55c-.39,1.13-1.23,1.92-1.9,1.92a.85.85,0,0,1-.23,0l-4.93-1.54L157,153a.85.85,0,0,0-.23,0c-.62,0-1.36.7-1.74,1.7a3,3,0,0,0-.19,1.53,1,1,0,0,0,.64.82l9.07,2.47a.77.77,0,0,1,.5.72,3.16,3.16,0,0,1-.4,1.78,1.85,1.85,0,0,1-1.38,1.15l-.14,0-5.62-1.24a1.53,1.53,0,0,0-.3,0c-1.2,0-2.69,1.42-3.43,3.39l-48.42-8.68,19.29-51.08m0-.91a.79.79,0,0,0-.3,0,.91.91,0,0,0-.56.54l-19.28,51.07a.89.89,0,0,0,.06.78.92.92,0,0,0,.63.45l48.41,8.68h.17a.92.92,0,0,0,.85-.59c.69-1.83,1.94-2.8,2.58-2.8h.1L163,164a1.76,1.76,0,0,0,.33,0,2.69,2.69,0,0,0,2.19-1.63,4,4,0,0,0,.49-2.33,1.65,1.65,0,0,0-1.16-1.48l-9-2.45a.68.68,0,0,1,0-.13,2.13,2.13,0,0,1,.14-1,1.76,1.76,0,0,1,.89-1.1l1.25.36,4.91,1.53a1.69,1.69,0,0,0,.5.08,3.38,3.38,0,0,0,2.77-2.53,4.47,4.47,0,0,0,.24-2,1.94,1.94,0,0,0-1.18-1.68l-9.66-3.56a2.29,2.29,0,0,1-.07-.25,2.37,2.37,0,0,1,.3-1.48c.29-.53.63-.71.74-.71l13,5.44a1.53,1.53,0,0,0,.6.12c1,0,1.95-.9,2.47-2.29.64-1.67.34-3.25-.71-3.75l-9-4.32h0s0-.09-.06-.27a2.41,2.41,0,0,1,.16-1.15,1.68,1.68,0,0,1,.66-.91l.76.37,5.24,2.79a1.94,1.94,0,0,0,.89.21c.48,0,1.67-.19,2.47-2,1.26-2.9-.05-4.08-.67-4.46l-5.07-3.28-42.16-25.45a.88.88,0,0,0-.47-.13Z" fill="#231f20"></path><path d="M139.46,148.66l-.15,0a.47.47,0,0,1-.28-.29L124.7,106.9a.46.46,0,0,1,.87-.29l14.14,40.9L166,130.89a.47.47,0,0,1,.63.14.45.45,0,0,1-.15.63l-26.75,16.93A.45.45,0,0,1,139.46,148.66Z" fill="#231f20"></path><path d="M105.4,157a.45.45,0,0,1-.22-.85l30.88-17.52a.46.46,0,0,1,.62.17.45.45,0,0,1-.17.62l-30.88,17.52A.46.46,0,0,1,105.4,157Z" fill="#231f20"></path><path d="M153.82,165.67a.46.46,0,0,1-.44-.33l-6.44-22a.46.46,0,0,1,.88-.25l6.43,22a.45.45,0,0,1-.31.57Z" fill="#231f20"></path><path d="M193.33,14.14,117,84.79l75.13,56h0c3.19-2.95,7.34-4.07,9.22-2.55l8.52,6.9c.71.58,2.17.36,3.56-.63a6,6,0,0,0,2.19-2.71,1.46,1.46,0,0,0-.24-1.63L202,128.2a1.84,1.84,0,0,1-.38-1.94,5.51,5.51,0,0,1,1.62-2.45c1.69-1.56,3.82-2.07,4.77-1.16l1.86,1.7,7.09,6.81c1,1,3.41.39,5.23-1.38a6.56,6.56,0,0,0,1.66-2.47,2,2,0,0,0-.2-2.11l-13.43-14.28a2.21,2.21,0,0,1-.32-2.17,6.26,6.26,0,0,1,2.45-3.21c1.64-1.16,3.38-1.21,4.18-.29l17.55,20.33c.8.93,2.85.38,4.58-1.21h0c1.73-1.6,2.53-3.67,1.77-4.64l-11.73-15.06a2.3,2.3,0,0,1-.15-2.14,6.27,6.27,0,0,1,1.72-2.54c1.67-1.54,3.65-1.92,4.41-.85l1,1.35,6.6,9.26c.62.87,2.31,1.46,4.72-.57,3.85-3.21,2.64-5.36,2.3-5.9l-5.87-10Z" fill="#2bd3f9"></path><path d="M193.33,14.14l50.18,79.18,5.87,10c.34.54,1.55,2.69-2.3,5.9a4.86,4.86,0,0,1-3,1.37,2,2,0,0,1-1.7-.8l-6.6-9.26-1-1.35a1.55,1.55,0,0,0-1.33-.61,4.89,4.89,0,0,0-3.08,1.46,6.27,6.27,0,0,0-1.72,2.54,2.3,2.3,0,0,0,.15,2.14l11.73,15.06c.76,1,0,3-1.77,4.64h0a5.6,5.6,0,0,1-3.43,1.67,1.46,1.46,0,0,1-1.15-.46l-17.55-20.33a2.06,2.06,0,0,0-1.59-.64,4.61,4.61,0,0,0-2.59.93,6.26,6.26,0,0,0-2.45,3.21,2.21,2.21,0,0,0,.32,2.17l13.43,14.28a2,2,0,0,1,.2,2.11,6.56,6.56,0,0,1-1.66,2.47,6,6,0,0,1-3.88,1.85,1.87,1.87,0,0,1-1.35-.47l-7.09-6.81-1.86-1.7a1.84,1.84,0,0,0-1.29-.45,6.2,6.2,0,0,0-5.1,4.06,1.84,1.84,0,0,0,.38,1.94l13.37,11.93a1.46,1.46,0,0,1,.24,1.63,6,6,0,0,1-2.19,2.71,4.59,4.59,0,0,1-2.53.95,1.62,1.62,0,0,1-1-.32l-8.52-6.9a3.5,3.5,0,0,0-2.24-.68,11.2,11.2,0,0,0-7,3.23L117,84.79l76.3-70.65m0-.91a1,1,0,0,0-.63.24L116.41,84.12a.91.91,0,0,0,.08,1.4l75.12,56a1,1,0,0,0,.55.18.91.91,0,0,0,.62-.24,10.42,10.42,0,0,1,6.36-3,2.65,2.65,0,0,1,1.67.47l8.52,6.9a2.48,2.48,0,0,0,1.6.52,5.45,5.45,0,0,0,3.06-1.12,6.89,6.89,0,0,0,2.52-3.15,2.34,2.34,0,0,0-.49-2.62l-13.37-11.92c-.28-.25-.17-.79-.11-1a5.33,5.33,0,0,1,4.22-3.4,1,1,0,0,1,.66.2L209.3,125l7.06,6.79a2.81,2.81,0,0,0,2,.72,6.93,6.93,0,0,0,4.52-2.11,7.56,7.56,0,0,0,1.89-2.83,2.88,2.88,0,0,0-.4-3L210.93,110.3a1.34,1.34,0,0,1-.11-1.29,5.34,5.34,0,0,1,2.1-2.72,3.74,3.74,0,0,1,2.06-.77,1.19,1.19,0,0,1,.9.33l17.55,20.33a2.35,2.35,0,0,0,1.84.77,6.51,6.51,0,0,0,4-1.91c2.15-2,3-4.51,1.88-5.89L229.47,104.1a1.49,1.49,0,0,1,0-1.29,5.45,5.45,0,0,1,1.47-2.16,4,4,0,0,1,2.46-1.21.69.69,0,0,1,.59.22l1,1.37,6.58,9.24a3,3,0,0,0,2.45,1.19,5.76,5.76,0,0,0,3.61-1.58c4.12-3.45,3.11-6.11,2.48-7.1l-5.85-9.93L194.1,13.66a.92.92,0,0,0-.66-.42Z" fill="#231f20"></path><path d="M182.16,100a.47.47,0,0,1-.33-.14.46.46,0,0,1-.12-.37l10.82-82.83a.46.46,0,0,1,.52-.39.45.45,0,0,1,.39.51L182.69,99l59.42-6a.46.46,0,0,1,.09.91l-60,6.1Z" fill="#231f20"></path><path d="M117,85.25a.45.45,0,0,1-.45-.43.46.46,0,0,1,.43-.49l67.53-3.59a.43.43,0,0,1,.48.43.47.47,0,0,1-.44.48l-67.52,3.6Z" fill="#231f20"></path><path d="M192.16,141.21h-.08a.46.46,0,0,1-.37-.53l7.76-43a.46.46,0,0,1,.53-.37.45.45,0,0,1,.37.53l-7.76,43A.46.46,0,0,1,192.16,141.21Z" fill="#231f20"></path><path d="M225.09,153a.53.53,0,0,1-.27-.08l-41.66-30.38a.45.45,0,1,1,.54-.73l41.66,30.37a.45.45,0,0,1-.27.82Z" fill="#fff"></path><path d="M230.81,141.21a.47.47,0,0,1-.33-.14l-13.81-14.42a.46.46,0,1,1,.66-.63l13.81,14.41a.46.46,0,0,1,0,.65A.5.5,0,0,1,230.81,141.21Z" fill="#fff"></path><path d="M239.86,140.19a.47.47,0,0,1-.33-.14l-8.47-8.78a.46.46,0,0,1,0-.65.47.47,0,0,1,.65,0l8.47,8.78a.47.47,0,0,1,0,.65A.5.5,0,0,1,239.86,140.19Z" fill="#fff"></path><path d="M248,135.8a.45.45,0,0,1-.36-.18c-8-10.2-20.18-25.6-20.83-26.2a.42.42,0,0,1-.12-.6.47.47,0,0,1,.65-.14c.47.28,13.37,16.65,21,26.38a.46.46,0,0,1-.08.64A.48.48,0,0,1,248,135.8Z" fill="#fff"></path><path d="M229.58,148a.46.46,0,0,1-.27-.09L221,141.78a.46.46,0,1,1,.54-.74l8.36,6.13a.45.45,0,0,1-.27.82Z" fill="#fff"></path><path d="M251.79,120.74a.47.47,0,0,1-.39-.2l-11.3-17.22a.45.45,0,0,1,.13-.63.44.44,0,0,1,.63.13L252.17,120a.45.45,0,0,1-.13.63A.47.47,0,0,1,251.79,120.74Z" fill="#fff"></path><path d="M225.77,21.83,194.65,38l19.4,24.91h0c1.3-.67,2.75-.66,3.23,0l2.15,3c.18.25.67.31,1.21.11a2.08,2.08,0,0,0,1-.68.54.54,0,0,0,.07-.56l-3.28-5.07a.62.62,0,0,1,.05-.66,1.86,1.86,0,0,1,.74-.66c.69-.35,1.43-.33,1.66,0l.45.72L223,62c.24.41,1.08.43,1.83,0a2.26,2.26,0,0,0,.76-.65.69.69,0,0,0,.12-.71l-3.08-5.84a.73.73,0,0,1,.09-.73,2.14,2.14,0,0,1,1.08-.83c.64-.23,1.21-.09,1.39.28l3.88,8.18c.18.38.89.38,1.59,0h0c.7-.36,1.15-1,1-1.34l-2.46-5.95a.75.75,0,0,1,.14-.71,2.13,2.13,0,0,1,.79-.67c.68-.35,1.35-.29,1.51.12l.21.53,1.31,3.6c.13.34.62.68,1.59.24,1.54-.7,1.34-1.5,1.28-1.71l-1-3.76Z" fill="#fff"></path><path d="M225.77,21.83,235,52.06l1,3.76c.06.21.26,1-1.28,1.71a2,2,0,0,1-.82.21.76.76,0,0,1-.77-.45l-1.31-3.6-.21-.53a.65.65,0,0,0-.66-.35,2,2,0,0,0-.85.23,2.13,2.13,0,0,0-.79.67.75.75,0,0,0-.14.71l2.46,5.95c.16.38-.29,1-1,1.34h0a2.24,2.24,0,0,1-1,.27.63.63,0,0,1-.61-.29l-3.88-8.18a.85.85,0,0,0-.79-.39,2,2,0,0,0-.6.11,2.14,2.14,0,0,0-1.08.83.73.73,0,0,0-.09.73l3.08,5.84a.69.69,0,0,1-.12.71,2.26,2.26,0,0,1-.76.65,2.33,2.33,0,0,1-1.08.3A.85.85,0,0,1,223,62l-1.69-2.85-.45-.72a.78.78,0,0,0-.7-.3,2.15,2.15,0,0,0-1,.25,1.86,1.86,0,0,0-.74.66.62.62,0,0,0-.05.66l3.28,5.07a.54.54,0,0,1-.07.56,2.08,2.08,0,0,1-1,.68,1.83,1.83,0,0,1-.61.12.71.71,0,0,1-.6-.23l-2.15-3a1.58,1.58,0,0,0-1.31-.5,4.39,4.39,0,0,0-1.92.5L194.65,38l31.12-16.13m0-.91a.9.9,0,0,0-.42.1L194.23,37.14a1,1,0,0,0-.47.62.9.9,0,0,0,.17.76l19.4,24.91a.92.92,0,0,0,.72.36.88.88,0,0,0,.42-.11,3.47,3.47,0,0,1,1.5-.4.9.9,0,0,1,.57.13l2.15,3A1.58,1.58,0,0,0,220,67a2.86,2.86,0,0,0,.93-.17,2.92,2.92,0,0,0,1.39-1,1.39,1.39,0,0,0,.08-1.57l-3.14-4.85a1.78,1.78,0,0,1,.31-.23,1.27,1.27,0,0,1,.54-.14h0l.38.59,1.68,2.83a1.72,1.72,0,0,0,1.53.76,3.16,3.16,0,0,0,1.52-.41,3,3,0,0,0,1.08-.94,1.55,1.55,0,0,0,.17-1.64l-3-5.69a1.28,1.28,0,0,1,.6-.43.81.81,0,0,1,.29-.06h0l3.82,8.05a1.5,1.5,0,0,0,1.44.81,3.12,3.12,0,0,0,1.4-.37c1.18-.61,1.78-1.66,1.42-2.51l-2.4-5.8a1.31,1.31,0,0,1,.45-.37,1.52,1.52,0,0,1,.33-.12l.12.3,1.31,3.57a1.67,1.67,0,0,0,1.62,1,2.81,2.81,0,0,0,1.2-.29c2.14-1,1.9-2.4,1.77-2.81l-1-3.73-9.22-30.26a.91.91,0,0,0-.88-.64Z" fill="#231f20"></path><path d="M234.54,52.44h-.08l-20-3.39a.46.46,0,0,1-.33-.23.51.51,0,0,1,0-.4L225,22.46a.46.46,0,0,1,.84.36L215.14,48.23l19.47,3.3a.46.46,0,0,1-.07.91Z" fill="#231f20"></path><path d="M216.92,43.29h-.1L194.55,38.4a.46.46,0,1,1,.2-.89L217,42.39a.46.46,0,0,1,.35.54A.46.46,0,0,1,216.92,43.29Z" fill="#231f20"></path><path d="M214.05,63.33a.43.43,0,0,1-.19,0,.46.46,0,0,1-.22-.61L220,49.4a.45.45,0,0,1,.6-.22.46.46,0,0,1,.22.61l-6.38,13.28A.45.45,0,0,1,214.05,63.33Z" fill="#231f20"></path><path d="M133.56,274.08l10.95-19.54s-42-29.58-42.77-30-29.12,49.3-29.12,49.3l2.17.23Z" fill="#231f20"></path><path d="M133.56,274.58H74.79l-2.23-.23a.5.5,0,0,1-.39-.27.51.51,0,0,1,0-.48c.07-.12,7.17-12.57,14.27-24.81,14.62-25.18,14.91-25,15.52-24.68.78.41,38.53,27,42.83,30a.49.49,0,0,1,.15.65l-11,19.55A.48.48,0,0,1,133.56,274.58Zm-60.13-1.15,1.41.16h58.42l10.6-18.89c-13.82-9.73-39-27.43-42.07-29.51C99.55,228,84,255,73.43,273.43Z" fill="#231f20"></path><path d="M325.21,274.08l2.17-.23s-22.47-52-23.25-51.56-46.84,28.86-46.84,28.86l9.92,22.93Z" fill="#231f20"></path><path d="M325.21,274.58h-58a.51.51,0,0,1-.46-.3l-9.92-22.93a.52.52,0,0,1,.2-.63c1.88-1.16,46.08-28.46,46.87-28.87a.51.51,0,0,1,.42,0c1.08.38,13.39,28.39,23.52,51.83a.48.48,0,0,1,0,.45.51.51,0,0,1-.38.25l-2.18.23Zm-57.68-1h57.65l1.48-.15c-8.32-19.21-20.68-47.31-22.64-50.5-3.42,2.07-30.95,19.06-46.1,28.42Z" fill="#231f20"></path></g></svg>